<?xml version="1.0" encoding="utf-8"?>
<!-- Generator: Adobe Illustrator 19.0.0, SVG Export Plug-In . SVG Version: 6.00 Build 0)  -->
<svg version="1.1" id="Layer_1" xmlns="http://www.w3.org/2000/svg" xmlns:xlink="http://www.w3.org/1999/xlink" x="0px" y="0px"
	 viewBox="0 0 243.7 59" style="enable-background:new 0 0 243.7 59;" xml:space="preserve">
<style type="text/css">
	.st0{fill:#0088FF;}
	.st1{fill:#FFFFFF;}
</style>
<g id="XMLID_235_">
	<g id="XMLID_245_">
		<path id="XMLID_15_" d="M85.4,19c2.7,0,4.9,1,6.7,3c1.8,2,2.7,4.6,2.7,7.8s-0.9,5.8-2.7,7.8c-1.8,2-4,3-6.8,3
			c-2.7,0-4.9-1.1-6.6-3.2v12.2h-5.4V19.4h5.4v2.9C80.4,20.1,82.6,19,85.4,19z M84.1,35.5c1.5,0,2.8-0.5,3.7-1.6
			c1-1.1,1.5-2.4,1.5-4.1c0-1.7-0.5-3.1-1.5-4.1c-1-1.1-2.2-1.6-3.8-1.6c-1.5,0-2.8,0.5-3.8,1.6c-1,1.1-1.5,2.4-1.5,4.1
			c0,1.7,0.5,3.1,1.5,4.1C81.3,34.9,82.6,35.5,84.1,35.5z"/>
		<path id="XMLID_18_" d="M113.1,19.4h5.4l0,20.7H113v-2.8c-1.6,2.2-3.7,3.2-6.5,3.2c-2.7,0-5-1-6.8-3c-1.8-2-2.7-4.6-2.7-7.8
			S98,24,99.8,22c1.8-2,4-3,6.7-3c2.8,0,4.9,1.1,6.6,3.4V19.4z M107.7,35.5c1.5,0,2.8-0.5,3.8-1.6c1-1.1,1.5-2.4,1.5-4.1
			c0-1.7-0.5-3.1-1.5-4.1c-1-1.1-2.3-1.6-3.8-1.6c-1.5,0-2.8,0.5-3.8,1.6c-1,1.1-1.5,2.4-1.5,4.1c0,1.7,0.5,3.1,1.5,4.1
			C105,34.9,106.2,35.5,107.7,35.5z"/>
		<path id="XMLID_21_" d="M133.8,19c2.7,0,4.9,1,6.7,3c1.8,2,2.7,4.6,2.7,7.8s-0.9,5.8-2.7,7.8c-1.8,2-4,3-6.8,3
			c-2.7,0-4.9-1.1-6.6-3.2v12.2h-5.4V19.4h5.4v2.9C128.9,20.1,131.1,19,133.8,19z M132.6,35.5c1.5,0,2.8-0.5,3.7-1.6
			c1-1.1,1.5-2.4,1.5-4.1c0-1.7-0.5-3.1-1.5-4.1c-1-1.1-2.2-1.6-3.8-1.6c-1.5,0-2.8,0.5-3.8,1.6c-1,1.1-1.5,2.4-1.5,4.1
			c0,1.7,0.5,3.1,1.5,4.1C129.8,34.9,131.1,35.5,132.6,35.5z"/>
		<path id="XMLID_24_" d="M148.8,9.9c1,0,1.8,0.3,2.4,0.9c0.6,0.6,0.9,1.4,0.9,2.3c0,0.9-0.3,1.7-0.9,2.3c-0.6,0.6-1.4,0.9-2.4,0.9
			c-1,0-1.8-0.3-2.4-0.9c-0.6-0.6-1-1.4-1-2.3c0-0.9,0.3-1.7,1-2.3C147,10.2,147.8,9.9,148.8,9.9z M146,40.1V19.4h5.4v20.7H146z"/>
		<path id="XMLID_27_" d="M166.6,19c0.4,0,0.8,0,1.2,0.1v5.5c-0.6,0-1-0.1-1.3-0.1c-1.9,0-3.4,0.5-4.6,1.5c-1.2,1-1.8,2.6-1.8,4.9
			v9.2h-5.4V19.4h5.4V23C161.4,20.3,163.6,19,166.6,19z"/>
		<path id="XMLID_29_" d="M180,13.8c3.8,0,7,1.3,9.6,3.8c2.6,2.5,3.9,5.6,3.9,9.4c0,3.8-1.3,6.9-3.9,9.4s-5.8,3.8-9.6,3.8h-9.5V13.8
			H180z M180,35c2.4,0,4.3-0.8,5.8-2.3c1.5-1.5,2.3-3.4,2.3-5.8c0-2.4-0.8-4.3-2.3-5.8c-1.5-1.5-3.5-2.3-5.8-2.3h-4.1V35H180z"/>
		<path id="XMLID_32_" d="M198.9,22.1c2.1-2.1,4.6-3.1,7.6-3.1c3,0,5.6,1,7.7,3.1c2.1,2.1,3.1,4.6,3.1,7.7c0,3.1-1,5.7-3.1,7.7
			c-2.1,2-4.6,3.1-7.7,3.1c-3,0-5.6-1-7.7-3.1c-2.1-2.1-3.1-4.6-3.1-7.7S196.8,24.1,198.9,22.1z M210.4,25.7c-1-1.1-2.3-1.6-3.8-1.6
			s-2.8,0.5-3.8,1.6c-1,1.1-1.5,2.4-1.5,4.1c0,1.7,0.5,3.1,1.5,4.1c1,1.1,2.3,1.6,3.8,1.6s2.8-0.5,3.8-1.6c1-1.1,1.5-2.4,1.5-4.1
			C211.9,28.1,211.4,26.7,210.4,25.7z"/>
		<path id="XMLID_35_" d="M230.4,40.6c-3.1,0-5.7-1-7.7-3.1c-2-2.1-3.1-4.6-3.1-7.7s1-5.7,3.1-7.7c2-2.1,4.6-3.1,7.7-3.1
			c2.6,0,4.9,0.7,6.8,2.2c1.9,1.5,3.1,3.5,3.5,6.1h-5.5c-0.3-1.1-0.9-1.9-1.8-2.5c-0.9-0.6-1.9-0.9-3-0.9c-1.6,0-2.9,0.5-3.9,1.6
			c-1,1.1-1.5,2.5-1.4,4.2c0,1.7,0.5,3.1,1.5,4.2c1,1.1,2.3,1.6,3.9,1.6c1.2,0,2.2-0.3,3.1-0.9s1.5-1.4,1.8-2.5h5.5
			c-0.4,2.6-1.6,4.7-3.5,6.2S233,40.6,230.4,40.6z"/>
	</g>
	<path id="XMLID_244_" class="st0" d="M45.8,57.4H13.5C7,57.4,1.8,52.2,1.8,45.8V13.4C1.8,7,7,1.7,13.5,1.7h32.4
		c6.4,0,11.7,5.2,11.7,11.7v32.4C57.5,52.2,52.3,57.4,45.8,57.4z"/>
	<path id="XMLID_236_" class="st1" d="M46.9,22.4c-0.1-0.3-0.3-0.5-0.6-0.5l-6.5-1.1c0,0,0,0,0,0c-0.1,0-0.2,0-0.3,0c0,0,0,0,0,0
		c0,0-0.1,0-0.1,0c0,0,0,0,0,0c0,0-0.1,0-0.1,0.1l-4.9,3.5L28.6,16c-0.1-0.2-0.3-0.3-0.5-0.3L17.5,14c-0.3,0-0.6,0.1-0.7,0.3
		c-0.2,0.2-0.1,0.6,0,0.8l8.5,11.8l-0.8,4.6L19.6,35c0,0,0,0,0,0c0,0-0.1,0-0.1,0.1c0,0,0,0,0,0c0,0,0,0,0,0.1c0,0,0,0,0,0
		c0,0,0,0,0,0.1c0,0,0,0,0,0c0,0,0,0,0,0c0,0,0,0,0,0.1c0,0,0,0,0,0c0,0,0,0,0,0l-1.5,9.4c0,0.3,0.1,0.6,0.3,0.7c0,0,0.1,0,0.1,0.1
		c0,0,0.1,0,0.1,0c0,0,0.1,0,0.1,0c0.1,0,0.3,0,0.4-0.1l5.1-3.7c0,0,0,0,0,0l14.2-10.2c0,0,0.1-0.1,0.1-0.1c0,0,0.1-0.1,0.1-0.1
		c0,0,0,0,0,0c0.1-0.1,0.1-0.2,0.1-0.3l0.5-2.6l7.5-5.4C46.8,23,46.9,22.7,46.9,22.4z M26.7,26.8C26.7,26.8,26.7,26.8,26.7,26.8
		l1.4-8.9l8.7,12.9l-3.7,2.6l-8.6,6.2l0.3-1.7L26.7,26.8z M25.6,24.9L19,15.7l7.9,1.3L25.6,24.9z M23.3,39.3L21,35.8l3.2-2.3
		L23.3,39.3z M20.5,37.5l2.3,3.6l-3.2,2.3L20.5,37.5z M38.6,23.1L37.7,28c0,0,0,0,0,0l-0.2,1.2l-2.4-3.6L38.6,23.1z M40.2,22.3
		l4.2,0.7l-4.9,3.6L40.2,22.3z"/>
</g>
</svg>
