<svg xmlns="http://www.w3.org/2000/svg" xmlns:xlink="http://www.w3.org/1999/xlink" width="240" height="56" viewBox="0 0 240 56">
  <defs>
    <clipPath id="clip-logo-papirDoc-white">
      <rect width="240" height="56"/>
    </clipPath>
  </defs>
  <g id="logo-papirDoc-white" clip-path="url(#clip-logo-papirDoc-white)">
    <g id="XMLID_235_" transform="translate(-1.8 -1.7)">
      <g id="XMLID_245_">
        <path id="XMLID_15_" d="M85.4,19a8.6,8.6,0,0,1,6.7,3,11.216,11.216,0,0,1,2.7,7.8,11.216,11.216,0,0,1-2.7,7.8,8.662,8.662,0,0,1-6.8,3,8.146,8.146,0,0,1-6.6-3.2V49.6H73.3V19.4h5.4v2.9A8.021,8.021,0,0,1,85.4,19ZM84.1,35.5a4.573,4.573,0,0,0,3.7-1.6,5.755,5.755,0,0,0,1.5-4.1,5.593,5.593,0,0,0-1.5-4.1A4.777,4.777,0,0,0,84,24.1a4.918,4.918,0,0,0-3.8,1.6,5.755,5.755,0,0,0-1.5,4.1,5.593,5.593,0,0,0,1.5,4.1A5.7,5.7,0,0,0,84.1,35.5Z" fill="#fff"/>
        <path id="XMLID_18_" d="M113.1,19.4h5.4V40.1H113V37.3a7.457,7.457,0,0,1-6.5,3.2,8.807,8.807,0,0,1-6.8-3A11.216,11.216,0,0,1,97,29.7,11.019,11.019,0,0,1,99.8,22a8.6,8.6,0,0,1,6.7-3,7.687,7.687,0,0,1,6.6,3.4Zm-5.4,16.1a4.918,4.918,0,0,0,3.8-1.6,5.755,5.755,0,0,0,1.5-4.1,5.593,5.593,0,0,0-1.5-4.1,5.313,5.313,0,0,0-7.6,0,5.755,5.755,0,0,0-1.5,4.1,5.593,5.593,0,0,0,1.5,4.1A5.464,5.464,0,0,0,107.7,35.5Z" fill="#fff"/>
        <path id="XMLID_21_" d="M133.8,19a8.6,8.6,0,0,1,6.7,3,11.216,11.216,0,0,1,2.7,7.8,11.216,11.216,0,0,1-2.7,7.8,8.662,8.662,0,0,1-6.8,3,8.146,8.146,0,0,1-6.6-3.2V49.6h-5.4V19.4h5.4v2.9A8.284,8.284,0,0,1,133.8,19Zm-1.2,16.5a4.573,4.573,0,0,0,3.7-1.6,5.755,5.755,0,0,0,1.5-4.1,5.593,5.593,0,0,0-1.5-4.1,4.777,4.777,0,0,0-3.8-1.6,4.918,4.918,0,0,0-3.8,1.6,5.755,5.755,0,0,0-1.5,4.1,5.593,5.593,0,0,0,1.5,4.1A5.7,5.7,0,0,0,132.6,35.5Z" fill="#fff"/>
        <path id="XMLID_24_" d="M148.8,9.9a3.244,3.244,0,0,1,2.4.9,3.168,3.168,0,0,1,.9,2.3,3.168,3.168,0,0,1-.9,2.3,3.4,3.4,0,0,1-5.8-2.3,2.9,2.9,0,0,1,1-2.3A3.244,3.244,0,0,1,148.8,9.9ZM146,40.1V19.4h5.4V40.1Z" fill="#fff"/>
        <path id="XMLID_27_" d="M166.6,19a4.869,4.869,0,0,1,1.2.1v5.5c-.6,0-1-.1-1.3-.1a6.882,6.882,0,0,0-4.6,1.5c-1.2,1-1.8,2.6-1.8,4.9v9.2h-5.4V19.4h5.4V23A6.684,6.684,0,0,1,166.6,19Z" fill="#fff"/>
        <path id="XMLID_29_" d="M180,13.8a13.362,13.362,0,0,1,9.6,3.8,12.447,12.447,0,0,1,3.9,9.4,12.447,12.447,0,0,1-3.9,9.4,13.362,13.362,0,0,1-9.6,3.8h-9.5V13.8ZM180,35a7.865,7.865,0,0,0,8.1-8.1,7.833,7.833,0,0,0-2.3-5.8,8,8,0,0,0-5.8-2.3h-4.1V35Z" fill="#fff"/>
        <path id="XMLID_32_" d="M198.9,22.1a10.259,10.259,0,0,1,7.6-3.1,10.483,10.483,0,0,1,7.7,3.1,10.327,10.327,0,0,1,3.1,7.7,10.175,10.175,0,0,1-3.1,7.7,10.72,10.72,0,0,1-7.7,3.1,10.483,10.483,0,0,1-7.7-3.1,10.327,10.327,0,0,1-3.1-7.7A10.255,10.255,0,0,1,198.9,22.1Zm11.5,3.6a5.313,5.313,0,0,0-7.6,0,5.755,5.755,0,0,0-1.5,4.1,5.593,5.593,0,0,0,1.5,4.1,5.313,5.313,0,0,0,7.6,0,5.755,5.755,0,0,0,1.5-4.1A5.593,5.593,0,0,0,210.4,25.7Z" fill="#fff"/>
        <path id="XMLID_35_" d="M230.4,40.6a10.175,10.175,0,0,1-7.7-3.1,10.72,10.72,0,0,1-3.1-7.7A10.591,10.591,0,0,1,230.4,19a10.669,10.669,0,0,1,6.8,2.2,9.262,9.262,0,0,1,3.5,6.1h-5.5a4.206,4.206,0,0,0-1.8-2.5,5.291,5.291,0,0,0-3-.9,4.987,4.987,0,0,0-3.9,1.6,5.522,5.522,0,0,0-1.4,4.2,6,6,0,0,0,1.5,4.2,4.987,4.987,0,0,0,3.9,1.6,5.384,5.384,0,0,0,3.1-.9,4.206,4.206,0,0,0,1.8-2.5h5.5a9.49,9.49,0,0,1-3.5,6.2A11.315,11.315,0,0,1,230.4,40.6Z" fill="#fff"/>
      </g>
      <path id="XMLID_244_" d="M45.8,57.4H13.5A11.63,11.63,0,0,1,1.8,45.8V13.4A11.715,11.715,0,0,1,13.5,1.7H45.9A11.715,11.715,0,0,1,57.6,13.4V45.8A11.781,11.781,0,0,1,45.8,57.4Z" fill="#08f"/>
      <path id="XMLID_236_" d="M46.9,22.4a.634.634,0,0,0-.6-.5l-6.5-1.1h-.4a.1.1,0,0,0-.1.1l-4.9,3.5L28.6,16a.55.55,0,0,0-.5-.3L17.5,14a.779.779,0,0,0-.7.3c-.2.2-.1.6,0,.8l8.5,11.8-.8,4.6L19.6,35h0a.1.1,0,0,0-.1.1h0v.1h0v.1h0v.1h0L18,44.8a.779.779,0,0,0,.3.7.1.1,0,0,1,.1.1h.2a.6.6,0,0,0,.4-.1l5.1-3.7h0L38.3,31.6l.1-.1.1-.1h0a.367.367,0,0,0,.1-.3l.5-2.6,7.5-5.4A.779.779,0,0,0,46.9,22.4ZM26.7,26.8h0l1.4-8.9,8.7,12.9-3.7,2.6-8.6,6.2.3-1.7Zm-1.1-1.9L19,15.7,26.9,17ZM23.3,39.3,21,35.8l3.2-2.3Zm-2.8-1.8,2.3,3.6-3.2,2.3ZM38.6,23.1,37.7,28h0l-.2,1.2-2.4-3.6Zm1.6-.8,4.2.7-4.9,3.6Z" fill="#fff"/>
    </g>
  </g>
</svg>
